<?xml version="1.0" encoding="UTF-8"?>
<svg width="155px" height="220px" viewBox="0 0 155 220" version="1.1" xmlns="http://www.w3.org/2000/svg" xmlns:xlink="http://www.w3.org/1999/xlink">
    <title>logo</title>
    <g id="Page-1" stroke="none" stroke-width="1" fill="none" fill-rule="evenodd">
        <g id="logo">
            <path d="M126.22,158.92 L40.69,46.53 L40.3,46.44 C40.04,47.48 29.44,63.78 27.98,65.93 C26.55,68.06 15.78,84.42 15.78,85.55 L15.78,85.77 C15.78,87.7 17.13,92.14 17.61,94.21 C18.28,97.03 18.94,99.94 19.4,102.69 C20.28,108.07 22.11,113.76 23.15,119.25 C24.13,124.63 25.5,130.75 26.78,135.88 C28.17,141.4 29.14,146.97 30.51,152.46 C33.16,163.43 35.05,174.98 37.9,185.88 C39.3,191.2 40,197.36 41.54,202.54 C42.24,204.7 45.1,217.3 45.14,219.25 L80.74,215.59 L67.62,170.19 L64.46,159.46 L64.07,158.73 L46.58,98.16 L102.48,176.04 L151.42,142.93 L138.17,66.23 L102.07,81.26 L126.22,158.92 Z" id="Path" fill="#E61E25"></path>
            <path d="M46.4799794,48.33 C46.45,49.03 79.26,92.24 82.59,96.55 C88.77,104.56 94.57,112.58 100.66,120.61 C102.92,123.56 117.85,143.86 118.98,144.66 L98.34,79.96 L130.14,66.7 L129.12,44.05 L82,34.06 L81.24,45.5 L81.24,50.25 C81.24,54.93 81.91,60.46 82.83,64.43 C83.38,66.94 83.69,68.45 84.39,70.73 C84.96,72.57 86.07,74.67 86.52,76.48 C83.06,74.2 79.43,67.22 77.79,62.75 C76.1,58.15 74.49,49.69 74.49,43.61 L74.45,32.49 L50.07,27.42 L46.4799794,48.33 Z" id="Path" fill="#00944C"></path>
            <path d="M78.07,147.03 C75.32,143.13 55.33,114.38 54.04,113.41 L78.65,197.53 L154.88,197.56 L143.46,152.54 C141.26,152.71 103.6,180.65 102.14,180.65 C101.82,180.64 80.19,150 78.07,147.03 L78.07,147.03 Z" id="Path" fill="#00944C"></path>
            <path d="M23.93,136.07 C23.63,136.27 13.78,164.53 12.79,167.43 C11.09,172.53 8.78,177.82 6.82,182.75 C5.04,187.27 2.81,193.43 0.63,197.55 L37.66,197.55 L23.93,136.07 Z" id="Path" fill="#00944C"></path>
            <path d="M74.97,30.46 L82.69,31.9 C83.01,28.02 86.23,19.94 87.86,17.04 C90.26,12.72 93.15,8.74 98.93,7.73 C104.48,6.74 108.99,12.32 110.94,15.55 C112.29,17.72 113.2,19.84 114.26,22.29 C114.93,23.85 116.31,29.24 116.82,29.99 C116.82,25.61 112.56,14.45 110.71,11.5 C108.03,7.12 103.42,0.93 96.6,0.93 L96.39,0.93 C89.31,0.93 84.12,6.95 81.46,11.42 C79.89,14.06 78.54,16.93 77.54,20.18 C77.05,21.74 76.51,23.23 76.03,25.13 C75.78,26.29 75.28,29.76 74.97,30.46 L74.97,30.46 Z" id="Path" fill="#E61E25"></path>
        </g>
    </g>
</svg>