<?xml version="1.0" encoding="utf-8"?>
<!-- Generator: Adobe Illustrator 23.0.5, SVG Export Plug-In . SVG Version: 6.00 Build 0)  -->
<svg version="1.1" id="Layer_1" xmlns="http://www.w3.org/2000/svg" xmlns:xlink="http://www.w3.org/1999/xlink" x="0px" y="0px"
	 viewBox="0 0 493.51 253.99" style="enable-background:new 0 0 493.51 253.99;" xml:space="preserve">
<style type="text/css">
	.st0{fill:#E61E25;}
	.st1{fill-rule:evenodd;clip-rule:evenodd;fill:#E61E25;}
	.st2{fill-rule:evenodd;clip-rule:evenodd;fill:#00944C;}
	.st3{fill:#151511;}
</style>
<g id="XMLID_1_">
	<g id="XMLID_44_">
		<g id="XMLID_54_">
			<path id="XMLID_57_" class="st0" d="M397.97,74.81l-0.4-1.59l-0.94-1.94l-0.5-0.99c-0.53-0.95-1.12-1.86-1.78-2.74
				c-1.62-2.06-2.79-3.38-3.52-3.96l-5.55,7.65c2.87,2.43,4.85,5.19,5.94,8.29l0.54,2.14H368.9h-3.81l0.15-2.66v-9.52l-1.88,1.67
				l-2.13,2.26c-0.73,0.95-1.29,1.7-1.68,2.26c-0.17,0.21-0.35,0.48-0.54,0.79l0.25,1.27l0.45,1.78l0.2,0.91l0.45,1.23l-9.56-0.2
				l-0.15-0.87c0-0.48,0.1-1.15,0.3-2.02l0.74-2.89l1.68-4.92l-1.68,1.35l-2.08,1.98L347,76.83c-0.3,0.37-0.54,0.77-0.72,1.21
				c-0.18,0.44-0.27,1.18-0.27,2.24l-0.05,1.27c-0.1,0.03-0.28,0.08-0.54,0.16c-0.26,0-0.53,0-0.79,0l-0.69,0.04h-0.99h-5.05
				l-3.52-0.08l-3.07-0.2c-2.01-0.32-3.12-0.67-3.32-1.07l0.4-0.71l0.25-0.48l0.94-1.78l0.59-1.39c0.99-2.59,1.49-4.67,1.49-6.23
				l-6.74,6.82l-0.05,1.27l-0.2,1.51c-0.5,1.51-1.39,2.26-2.67,2.26h-0.84h-12.7h-1.34c-1.58,0-3.01-0.44-4.26-1.31
				c-1.02-0.85-1.54-1.8-1.54-2.85l0.05-0.48l0.35-1.59l0.2-0.59v-0.63l0.15-2.14l0.15-2.93v-1.03l-6.09,5.79l-0.25,4.4l-0.05,1.11
				l-0.25,0.99l-0.45,0.99l-0.15,0.28h-14.04h-1.73v-0.52c0-1.67-1.54-12.43-3.14-15.99c-1.78-3.97-3.46-6.64-7.38-6.9
				c-3.23-0.21-10.61,1.96-15.16,8.45c-3.47,4.94-4.28,11.63-1.11,15.91c3.49,4.71,6.47,5.5,10.47,6.36
				c2.21,0.48,3.57,0.79,7.3,0.79h0.25c0,0-2.18,4.09-10.13,3.53c-7.92-0.56-12.39-2.91-16.21-5.13c-1.55-0.9-5-3.2-5-3.2
				c-0.63,0.11-0.94,0.36-0.94,0.75c0.2,0.69,4.15,6.31,12.23,9.74c7.34,3.11,12.55,3.08,18.5,1.42c5.63-1.57,7.39-4.1,9.13-7.09
				h2.92h11.46l3.71-5.39c0.66,1.8,1.63,3.15,2.92,4.04c1.29,0.9,2.82,1.35,4.61,1.35h4.8h8.28c0.69-0.08,3.61-0.32,4.37-0.71
				l1.24-0.83l0.99-0.79l0.59-0.52l0.54,1.47c0.63,0.93,1.24,1.39,1.83,1.39h17.48l1.83-1.59l0.59-0.48
				c0.43,0.24,0.73,0.54,0.89,0.91l0.35,0.71l0.4,0.44h13.67l1.29-2.54l0.84,2.54h5.25H395l0.94-2.74l0.99-2.58l0.99-3.41l0.05-1.67
				l0.1-2.38L397.97,74.81z M268.62,82.12c-4.1,0.08-7.5-0.24-10.06-1.78c-3.69-2.23-5.96-6.82-2.64-11.18
				c2.33-3.06,5.85-3.6,7.63-3.6c5.31-0.01,6.61,4.19,7.9,7.62c1.27,3.39,1.15,8.59,1.15,8.59S270.75,82.08,268.62,82.12z"/>
			<polygon id="XMLID_56_" class="st0" points="387.6,61.24 380.69,57.63 373.64,61.15 380.64,64.75 			"/>
			<polygon id="XMLID_55_" class="st0" points="312.42,63.2 305.51,59.59 300.16,62.26 295.05,59.59 288,63.11 294.99,66.71 
				300.28,64.04 305.46,66.71 			"/>
		</g>
		<g id="XMLID_46_">
			<path id="XMLID_53_" class="st0" d="M203.81,93.65l0.59,0.07c2.83,0.36,4.78,1.13,5.79,2.3c0.97,1.12,1.46,3.39,1.46,6.76v36.08
				l-27.48-50.62h-25.53v5.43l0.61,0.05c3.99,0.32,5.63,0.95,6.31,1.42c0.85,0.6,1.26,1.69,1.26,3.36v59.63
				c0,3.41-0.5,5.72-1.49,6.88c-1.03,1.2-2.96,1.97-5.75,2.29l-0.59,0.07v5.35h23.32v-5.29l-0.59-0.07
				c-2.83-0.36-4.82-1.16-5.9-2.39c-1.03-1.18-1.56-3.48-1.56-6.84v-49.83l35.88,65.83h8.95v-71.35c0-3.29,0.51-5.55,1.52-6.7
				c1.06-1.21,3.05-2,5.93-2.36l0.59-0.07v-5.41h-23.32V93.65z"/>
			<path id="XMLID_52_" class="st0" d="M272.69,149.59c-1.98,6.18-4.45,10.83-7.35,13.83c-2.87,2.96-6.36,4.46-10.37,4.46
				c-1.87,0-2.72-0.42-3.1-0.77c-0.48-0.44-0.73-1.33-0.73-2.63v-25.35c2.62,0.44,4.8,1.71,6.49,3.77c1.83,2.24,2.98,5.32,3.42,9.14
				l0.08,0.73h5.05v-30.97h-5.01l-0.12,0.66c-0.65,3.65-1.87,6.45-3.63,8.34c-1.62,1.74-3.73,2.79-6.29,3.13v-22.05
				c0-2.34,0.42-3.07,0.67-3.29c0.36-0.32,1.24-0.71,3.4-0.71c4.32,0,7.84,1.28,10.47,3.79c2.63,2.52,4.72,6.63,6.2,12.23l0.15,0.57
				h4.91l-0.37-21.4h-46.35v4.76l0.61,0.05c0.73,0.06,1.37,0.17,1.91,0.33c0.5,0.15,0.92,0.35,1.24,0.61l0.02,0.01
				c0.43,0.32,0.73,0.69,0.9,1.08c0.12,0.28,0.26,0.85,0.26,1.96v52.14c0,1.32-0.27,2.21-0.82,2.72c-0.43,0.4-1.39,0.93-3.52,1.14
				l-0.6,0.06v4.79h46.92l0.5-23.66h-4.77L272.69,149.59z"/>
			<path id="XMLID_51_" class="st0" d="M323.5,139.68c-2.81-2.97-6.41-6.12-10.7-9.37l-0.01-0.01c-0.64-0.45-1.09-0.79-1.35-0.99
				l-1.16-0.88c-11.13-8.73-13.46-13.17-13.46-15.35c0-1.64,0.65-2.96,1.99-4.03c1.42-1.14,3.3-1.72,5.58-1.72
				c3.38,0,6.38,1.54,8.92,4.56c2.59,3.08,4.75,7.75,6.43,13.87l0.15,0.56h5.81v-23.85h-4.79l-0.19,0.29
				c-0.51,0.76-1.1,1.34-1.78,1.72c-0.68,0.38-1.43,0.58-2.21,0.58c-0.43,0-1.61-0.24-4.76-1.4c-2.65-0.97-5.04-1.46-7.12-1.46
				c-5.01,0-9.34,1.67-12.86,4.96c-3.59,3.36-5.41,7.59-5.41,12.58c0,2.26,0.44,4.51,1.31,6.71c0.85,2.16,2.14,4.31,3.84,6.41
				c1.58,1.9,4.88,4.84,10.09,8.98c1.65,1.3,2.96,2.33,3.9,3.05c6.08,4.99,9.98,8.63,11.58,10.82c1.52,2.08,2.29,4.11,2.29,6.06
				c0,1.99-0.72,3.57-2.2,4.83c-1.55,1.32-3.63,1.99-6.17,1.99c-3.93,0-7.5-1.66-10.62-4.92c-3.15-3.3-5.71-8.09-7.61-14.24
				l-0.16-0.53h-6.02v25.01h4.89l0.18-0.18c1.29-1.34,2.28-2.21,2.96-2.59c0.64-0.37,1.37-0.55,2.15-0.55
				c0.41,0,1.68,0.28,5.46,1.59c3.14,1.09,6.09,1.65,8.78,1.65c5.32,0,9.8-1.7,13.32-5.06c3.59-3.42,5.41-7.84,5.41-13.13
				c0-2.9-0.55-5.73-1.63-8.4C327.25,144.56,325.63,142.03,323.5,139.68z"/>
			<path id="XMLID_50_" class="st0" d="M334.79,103.07L334.12,129h4.84l0.13-0.64c1.24-6.15,2.9-11.05,4.94-14.56
				c1.8-3.09,3.85-5.04,6.13-5.82v54.5c0,2.14-0.33,3.56-0.98,4.22c-0.49,0.49-1.63,1.11-4.25,1.26L344.3,168v4.73H372V168
				l-0.62-0.03c-2.63-0.14-3.77-0.76-4.25-1.26c-0.65-0.66-0.98-2.08-0.98-4.22v-54.5c2.28,0.78,4.33,2.73,6.13,5.82
				c2.04,3.52,3.71,8.41,4.94,14.56l0.13,0.64h4.84l-0.68-25.93H334.79z"/>
			<path id="XMLID_47_" class="st0" d="M449.09,109.45c-2.51-6.23-6.25-11.58-11.11-15.87c-2.33-2.15-5.01-3.81-7.95-4.93
				c-2.94-1.12-6.01-1.69-9.13-1.69c-3.17,0-6.25,0.57-9.17,1.7c-2.92,1.13-5.61,2.79-7.98,4.93c-4.87,4.38-8.61,9.75-11.12,15.99
				c-2.51,6.23-3.78,13.27-3.78,20.93c0,7.65,1.27,14.69,3.78,20.9c2.51,6.21,6.25,11.6,11.12,16.01c2.38,2.14,5.08,3.82,8.05,4.98
				c2.96,1.16,6.02,1.75,9.1,1.75c3.08,0,6.13-0.59,9.07-1.75c2.94-1.16,5.64-2.84,8.01-4.98c4.82-4.3,8.55-9.66,11.08-15.93
				c2.53-6.27,3.82-13.33,3.82-20.98C452.87,122.76,451.6,115.68,449.09,109.45z M420.9,92.38c3.94,0,6.65,2.51,8.28,7.67
				c1.68,5.33,2.54,15.65,2.54,30.67c0,14.57-0.85,24.66-2.54,29.99c-1.63,5.16-4.34,7.67-8.28,7.67c-3.95,0-6.66-2.51-8.28-7.67
				c-1.68-5.33-2.54-15.42-2.54-29.99c0-15.02,0.84-25.34,2.5-30.67C414.18,94.88,416.9,92.38,420.9,92.38z"/>
		</g>
		<g id="XMLID_39_">
			<path id="XMLID_45_" class="st1" d="M124.26,147.19L67.31,72.35l-0.26-0.06c-0.17,0.7-7.23,11.54-8.2,12.98
				c-0.95,1.42-8.13,12.31-8.13,13.06v0.15c0,1.28,0.9,4.24,1.22,5.62c0.45,1.87,0.88,3.81,1.19,5.65c0.58,3.58,1.8,7.37,2.5,11.02
				c0.65,3.58,1.56,7.66,2.42,11.08c0.93,3.68,1.57,7.39,2.48,11.04c1.76,7.3,3.02,14.99,4.92,22.25c0.94,3.54,1.4,7.65,2.42,11.09
				c0.46,1.44,2.37,9.83,2.4,11.13l23.7-2.44l-8.73-30.23l-2.1-7.14l-0.26-0.49l-11.65-40.33l37.22,51.86l32.59-22.05l-8.82-51.07
				l-24.03,10L124.26,147.19L124.26,147.19z"/>
			<path id="XMLID_43_" class="st2" d="M71.16,73.55c-0.02,0.46,21.83,29.23,24.04,32.11c4.12,5.34,7.98,10.67,12.03,16.02
				c1.51,1.96,11.44,15.48,12.2,16.01l-13.74-43.08l21.17-8.83l-0.68-15.08l-31.38-6.65l-0.51,7.62v3.16c0,3.11,0.45,6.8,1.06,9.44
				c0.36,1.67,0.57,2.68,1.04,4.19c0.38,1.23,1.12,2.62,1.42,3.83c-2.3-1.52-4.72-6.17-5.81-9.14c-1.13-3.06-2.2-8.69-2.2-12.75
				l-0.02-7.4l-16.23-3.38L71.16,73.55L71.16,73.55z"/>
			<path id="XMLID_42_" class="st2" d="M92.2,139.27c-1.83-2.59-15.14-21.74-16-22.39l16.38,56.01l50.76,0.02l-7.6-29.97
				c-1.47,0.11-26.54,18.72-27.51,18.72C108.02,161.65,93.61,141.25,92.2,139.27L92.2,139.27z"/>
			<path id="XMLID_41_" class="st2" d="M56.15,131.97c-0.2,0.13-6.76,18.95-7.42,20.88c-1.13,3.4-2.67,6.91-3.97,10.2
				c-1.19,3.01-2.67,7.11-4.12,9.86H65.3L56.15,131.97L56.15,131.97z"/>
			<path id="XMLID_40_" class="st1" d="M90.13,61.66l5.14,0.96c0.21-2.58,2.36-7.96,3.44-9.9c1.59-2.88,3.52-5.53,7.37-6.2
				c3.7-0.66,6.7,3.05,7.99,5.21c0.9,1.44,1.5,2.86,2.21,4.49c0.44,1.04,1.37,4.63,1.71,5.13c0-2.92-2.84-10.35-4.07-12.31
				c-1.78-2.92-4.85-7.04-9.39-7.04h-0.14c-4.71,0-8.17,4.01-9.94,6.98c-1.05,1.76-1.94,3.67-2.61,5.83c-0.32,1.04-0.68,2.03-1,3.3
				C90.68,58.88,90.34,61.19,90.13,61.66L90.13,61.66z"/>
		</g>
	</g>
	<g id="XMLID_2_">
		<g id="XMLID_3_">
			<path id="XMLID_64_" class="st3" d="M206.34,188.71h3.62l7.66,18.92h-4.11l-1.63-4.21h-7.56l-1.63,4.21h-4.01L206.34,188.71z
				 M210.47,199.77l-2.37-6.09l-2.37,6.09H210.47z"/>
			<path id="XMLID_62_" class="st3" d="M219.37,188.04h3.88v19.59h-3.88V188.04z"/>
			<path id="XMLID_60_" class="st3" d="M226.32,188.04h3.88v19.59h-3.88V188.04z"/>
			<path id="XMLID_38_" class="st3" d="M237.92,203.55v-6.81h-1.64v-3.49h1.64v-3.68h3.88v3.68h3.22v3.49h-3.22v6.14
				c0,0.94,0.39,1.4,1.25,1.4c0.71,0,1.35-0.19,1.91-0.51v3.27c-0.81,0.51-1.76,0.83-3.06,0.83
				C239.53,207.87,237.92,206.88,237.92,203.55z"/>
			<path id="XMLID_36_" class="st3" d="M247.11,188.04h3.87v7.25c0.9-1.21,2.05-2.31,4.02-2.31c2.93,0,4.64,2.04,4.64,5.34v9.31
				h-3.88v-8.02c0-1.93-0.87-2.92-2.35-2.92c-1.47,0-2.42,0.99-2.42,2.92v8.02h-3.87V188.04z"/>
			<path id="XMLID_27_" class="st3" d="M261.42,203.5v-0.06c0-3.14,2.27-4.58,5.51-4.58c1.38,0,2.38,0.24,3.34,0.59v-0.24
				c0-1.69-0.99-2.63-2.93-2.63c-1.48,0-2.54,0.29-3.78,0.78l-0.97-3.11c1.5-0.69,2.98-1.15,5.31-1.15c2.11,0,3.65,0.59,4.62,1.61
				c1.02,1.07,1.48,2.65,1.48,4.58v8.34h-3.76v-1.55c-0.94,1.1-2.24,1.82-4.13,1.82C263.54,207.9,261.42,206.34,261.42,203.5z
				 M270.33,202.56v-0.73c-0.66-0.32-1.53-0.53-2.48-0.53c-1.66,0-2.68,0.7-2.68,1.98v0.06c0,1.1,0.87,1.74,2.12,1.74
				C269.1,205.08,270.33,204.03,270.33,202.56z"/>
			<path id="XMLID_25_" class="st3" d="M277.1,203.55v-6.81h-1.64v-3.49h1.64v-3.68h3.87v3.68h3.22v3.49h-3.22v6.14
				c0,0.94,0.38,1.4,1.25,1.4c0.72,0,1.35-0.19,1.91-0.51v3.27c-0.81,0.51-1.76,0.83-3.06,0.83
				C278.71,207.87,277.1,206.88,277.1,203.55z"/>
			<path id="XMLID_23_" class="st3" d="M291.38,211.01l1.31-2.95c0.5,0.32,1.15,0.56,1.65,0.56c0.67,0,1.02-0.21,1.35-0.94
				l-5.35-14.44h4.1l3.11,9.8l2.99-9.8h4.03l-5.26,14.73c-1.06,2.93-2.18,4.02-4.49,4.02C293.42,212,292.37,211.63,291.38,211.01z"
				/>
			<path id="XMLID_20_" class="st3" d="M304.67,200.52v-0.05c0-4.13,3.17-7.49,7.43-7.49c4.24,0,7.38,3.3,7.38,7.43v0.06
				c0,4.13-3.17,7.48-7.43,7.48C307.81,207.95,304.67,204.66,304.67,200.52z M315.65,200.52v-0.05c0-2.12-1.45-3.97-3.6-3.97
				c-2.22,0-3.55,1.8-3.55,3.92v0.06c0,2.13,1.46,3.97,3.6,3.97C314.32,204.44,315.65,202.64,315.65,200.52z"/>
			<path id="XMLID_18_" class="st3" d="M321.41,202.56v-9.31h3.88v8.03c0,1.93,0.87,2.93,2.35,2.93c1.48,0,2.42-1,2.42-2.93v-8.03
				h3.89v14.38h-3.89v-2.04c-0.89,1.21-2.04,2.31-4,2.31C323.12,207.9,321.41,205.86,321.41,202.56z"/>
			<path id="XMLID_16_" class="st3" d="M341.39,193.25h3.88v2.05c0.9-1.21,2.04-2.31,4.01-2.31c2.94,0,4.65,2.04,4.65,5.34v9.31
				h-3.88v-8.02c0-1.93-0.87-2.92-2.35-2.92c-1.48,0-2.43,0.99-2.43,2.92v8.02h-3.88V193.25z"/>
			<path id="XMLID_12_" class="st3" d="M355.85,200.52v-0.05c0-4.11,2.78-7.49,6.76-7.49c4.58,0,6.67,3.73,6.67,7.81
				c0,0.32-0.03,0.7-0.05,1.07h-9.52c0.38,1.86,1.61,2.82,3.35,2.82c1.31,0,2.25-0.43,3.32-1.48l2.22,2.07
				c-1.28,1.66-3.11,2.68-5.6,2.68C358.89,207.95,355.85,204.92,355.85,200.52z M365.5,199.31c-0.23-1.82-1.25-3.05-2.89-3.05
				c-1.6,0-2.65,1.2-2.96,3.05H365.5z"/>
			<path id="XMLID_9_" class="st3" d="M370.73,200.52v-0.05c0-4.11,2.78-7.49,6.76-7.49c4.57,0,6.66,3.73,6.66,7.81
				c0,0.32-0.02,0.7-0.04,1.07h-9.53c0.39,1.86,1.61,2.82,3.35,2.82c1.3,0,2.24-0.43,3.32-1.48l2.22,2.07
				c-1.28,1.66-3.12,2.68-5.6,2.68C373.78,207.95,370.73,204.92,370.73,200.52z M380.38,199.31c-0.22-1.82-1.25-3.05-2.89-3.05
				c-1.61,0-2.65,1.2-2.96,3.05H380.38z"/>
			<path id="XMLID_6_" class="st3" d="M385.66,200.47v-0.06c0-4.8,2.99-7.43,6.23-7.43c2.07,0,3.35,0.99,4.26,2.15v-7.08h3.88v19.59
				h-3.88v-2.07c-0.94,1.34-2.24,2.34-4.26,2.34C388.7,207.9,385.66,205.27,385.66,200.47z M396.21,200.47v-0.06
				c0-2.39-1.5-3.97-3.32-3.97c-1.81,0-3.34,1.56-3.34,3.97v0.06c0,2.39,1.53,3.97,3.34,3.97
				C394.7,204.44,396.21,202.86,396.21,200.47z"/>
			<path id="XMLID_4_" class="st3" d="M402.58,203.34h4.13v4.29h-4.13V203.34z"/>
		</g>
	</g>
</g>
</svg>
